<svg xmlns="http://www.w3.org/2000/svg" xmlns:xlink="http://www.w3.org/1999/xlink" width="190" height="22" viewBox="0 0 190 22">
    <defs>
        <path id="spqxln01na" d="M0 0L4.422 0 4.422 4.477 0 4.477z"/>
    </defs>
    <g fill="none" fill-rule="evenodd">
        <g>
            <g>
                <path fill="#FFF" d="M24.562 10.787c-.747.637-1.2 1.486-1.361 2.547h8.167c-.143-1.043-.582-1.887-1.32-2.534-.737-.648-1.653-.97-2.75-.97-1.078 0-1.99.32-2.736.957m9.962 4.784H23.227c.198 1.063.714 1.902 1.55 2.521.835.62 1.875.93 3.114.93 1.582 0 2.886-.52 3.91-1.562l1.806 2.076c-.648.773-1.465 1.357-2.454 1.75-.989.396-2.102.595-3.342.595-1.582 0-2.975-.315-4.18-.945-1.204-.627-2.134-1.504-2.79-2.627-.656-1.124-.984-2.396-.984-3.816 0-1.401.32-2.663.957-3.786.639-1.124 1.524-2 2.656-2.63 1.133-.63 2.409-.942 3.828-.942 1.402 0 2.656.31 3.76.93 1.107.619 1.97 1.49 2.589 2.614.62 1.123.93 2.423.93 3.894 0 .235-.018.567-.053.998M38.568 21.422c-1.115-.304-2.005-.692-2.67-1.158l1.294-2.562c.648.43 1.425.778 2.333 1.038.907.262 1.801.39 2.681.39 2.013 0 3.02-.529 3.02-1.59 0-.503-.256-.854-.768-1.053-.512-.196-1.335-.385-2.467-.564-1.186-.181-2.152-.387-2.898-.622-.746-.231-1.393-.642-1.94-1.227-.55-.581-.823-1.395-.823-2.438 0-1.365.57-2.458 1.711-3.275 1.142-.818 2.683-1.226 4.624-1.226.989 0 1.977.11 2.966.335.988.226 1.797.526 2.426.904l-1.294 2.562c-1.223-.72-2.597-1.078-4.124-1.078-.99 0-1.74.146-2.251.443-.513.297-.77.687-.77 1.174 0 .539.275.92.822 1.146.549.224 1.398.436 2.548.632 1.15.18 2.094.388 2.832.62.737.234 1.37.63 1.9 1.186.53.557.795 1.348.795 2.373 0 1.348-.584 2.426-1.752 3.235-1.168.808-2.76 1.214-4.772 1.214-1.169 0-2.31-.154-3.423-.459M54.677 10.787c-.747.637-1.2 1.486-1.362 2.547h8.168c-.144-1.043-.583-1.887-1.32-2.534-.738-.648-1.654-.97-2.75-.97-1.08 0-1.99.32-2.736.957m9.961 4.784H53.342c.197 1.063.714 1.902 1.55 2.521.835.62 1.874.93 3.113.93 1.582 0 2.886-.52 3.91-1.562l1.806 2.076c-.647.773-1.465 1.357-2.453 1.75-.99.396-2.103.595-3.343.595-1.582 0-2.975-.315-4.18-.945-1.203-.627-2.134-1.504-2.789-2.627-.656-1.124-.985-2.396-.985-3.816 0-1.401.32-2.663.957-3.786.64-1.124 1.524-2 2.657-2.63 1.132-.63 2.408-.942 3.827-.942 1.402 0 2.657.31 3.76.93 1.107.619 1.97 1.49 2.59 2.614.62 1.123.93 2.423.93 3.894 0 .235-.019.567-.054.998M74.545 18.848c.656-.385 1.12-.94 1.39-1.657v-1.673h-3.48c-1.94 0-2.91.637-2.91 1.914 0 .612.242 1.096.728 1.456.485.36 1.159.54 2.022.54.844 0 1.594-.195 2.25-.58M77.62 8.656c1.123 1.015 1.684 2.55 1.684 4.597v8.439h-3.18v-1.753c-.414.63-1.002 1.11-1.766 1.443-.764.333-1.685.499-2.763.499-1.08 0-2.022-.184-2.831-.552-.809-.37-1.433-.881-1.875-1.54-.44-.654-.66-1.395-.66-2.223 0-1.292.48-2.33 1.443-3.114.96-.78 2.476-1.171 4.543-1.171h3.72v-.217c0-1.005-.3-1.778-.903-2.317-.603-.54-1.496-.809-2.682-.809-.809 0-1.605.126-2.387.375-.781.252-1.442.605-1.982 1.054l-1.32-2.454c.755-.574 1.662-1.015 2.722-1.323 1.061-.304 2.184-.455 3.37-.455 2.122 0 3.744.506 4.867 1.521M91.677 7.135v3.206c-.287-.053-.548-.08-.781-.08-1.312 0-2.337.383-3.073 1.146-.739.763-1.106 1.864-1.106 3.302v6.983h-3.37V7.296h3.207v2.103c.972-1.511 2.68-2.264 5.123-2.264M96.72 20.936c-1.187-.627-2.112-1.504-2.778-2.627-.665-1.124-.997-2.396-.997-3.816 0-1.419.332-2.685.997-3.802.666-1.113 1.587-1.984 2.764-2.614 1.177-.63 2.521-.943 4.032-.943 1.419 0 2.663.288 3.732.862 1.07.574 1.875 1.403 2.414 2.481l-2.589 1.51c-.413-.666-.929-1.164-1.55-1.497-.62-.332-1.298-.499-2.035-.499-1.259 0-2.301.408-3.127 1.227-.827.819-1.241 1.91-1.241 3.275 0 1.367.41 2.458 1.227 3.277.818.818 1.865 1.226 3.14 1.226.738 0 1.416-.166 2.036-.498.621-.333 1.137-.831 1.55-1.496l2.589 1.508c-.558 1.078-1.37 1.91-2.44 2.494-1.07.585-2.305.877-3.706.877-1.493 0-2.832-.315-4.018-.945M121.927 8.724c1.096 1.06 1.644 2.632 1.644 4.718v8.25h-3.37v-7.819c0-1.257-.297-2.207-.89-2.844s-1.437-.957-2.534-.957c-1.24 0-2.22.373-2.938 1.118-.72.746-1.078 1.822-1.078 3.222v7.28h-3.37V1.689h3.37v7.277c.556-.592 1.244-1.045 2.062-1.36.818-.315 1.73-.471 2.736-.471 1.815 0 3.271.529 4.368 1.59" transform="translate(-232 -33) translate(232 33)"/>
                <g transform="translate(-232 -33) translate(232 33) translate(126.456 17.404)">
                    <mask id="l5vif1m16b" fill="#fff">
                        <use xlink:href="#spqxln01na"/>
                    </mask>
                    <path fill="#80B9CB" d="M.647 3.842C.215 3.42 0 2.884 0 2.239 0 1.575.212 1.036.634.62 1.055.208 1.582 0 2.21 0c.63 0 1.154.207 1.578.62.422.416.633.955.633 1.62 0 .644-.217 1.18-.647 1.602-.432.423-.954.635-1.564.635-.611 0-1.133-.212-1.564-.635" mask="url(#l5vif1m16b)"/>
                </g>
                <path fill="#80B9CB" d="M136.215 20.936c-1.187-.627-2.112-1.504-2.777-2.627-.665-1.124-.998-2.396-.998-3.816 0-1.419.333-2.685.998-3.802.665-1.113 1.586-1.984 2.763-2.614 1.178-.63 2.521-.943 4.032-.943 1.419 0 2.663.288 3.733.862 1.07.574 1.874 1.403 2.413 2.481l-2.588 1.51c-.414-.666-.93-1.164-1.55-1.497-.62-.332-1.3-.499-2.036-.499-1.259 0-2.301.408-3.127 1.227-.827.819-1.241 1.91-1.241 3.275 0 1.367.41 2.458 1.227 3.277.818.818 1.865 1.226 3.14 1.226.738 0 1.416-.166 2.036-.498.621-.333 1.137-.831 1.55-1.496l2.59 1.508c-.559 1.078-1.371 1.91-2.44 2.494-1.07.585-2.306.877-3.707.877-1.493 0-2.832-.315-4.018-.945M158.35 17.755c.809-.827 1.213-1.912 1.213-3.262 0-1.348-.404-2.434-1.213-3.263-.808-.826-1.834-1.239-3.073-1.239-1.24 0-2.26.413-3.06 1.24-.8.828-1.2 1.914-1.2 3.262 0 1.35.4 2.435 1.2 3.262.8.829 1.82 1.242 3.06 1.242s2.265-.413 3.073-1.242m-7.01 3.181c-1.167-.627-2.08-1.504-2.736-2.627-.656-1.124-.985-2.396-.985-3.816 0-1.419.33-2.686.985-3.802.656-1.113 1.569-1.985 2.736-2.614 1.169-.63 2.481-.942 3.937-.942 1.472 0 2.794.312 3.962.942 1.17.63 2.081 1.5 2.738 2.614.656 1.116.983 2.383.983 3.802 0 1.42-.327 2.692-.983 3.816-.657 1.123-1.569 2-2.738 2.627-1.168.63-2.49.945-3.962.945-1.456 0-2.768-.315-3.937-.945M188.41 8.712c1.06 1.05 1.59 2.627 1.59 4.73v8.25h-3.37v-7.819c0-1.257-.279-2.207-.835-2.844-.557-.637-1.358-.957-2.4-.957-1.132 0-2.04.372-2.723 1.118-.684.746-1.024 1.812-1.024 3.197v7.305h-3.37v-7.819c0-1.257-.28-2.207-.836-2.844-.557-.637-1.357-.957-2.4-.957-1.15 0-2.061.368-2.735 1.105-.676.739-1.012 1.807-1.012 3.21v7.305h-3.37V7.296h3.208V9.13c.54-.648 1.214-1.142 2.022-1.484.81-.342 1.707-.511 2.696-.511 1.08 0 2.036.201 2.871.604.837.406 1.497 1.003 1.982 1.794.593-.756 1.357-1.343 2.292-1.766.935-.423 1.967-.632 3.1-.632 1.816 0 3.253.524 4.313 1.577" transform="translate(-232 -33) translate(232 33)"/>
                <path fill="#FFF" d="M4.024 3.404h4.07c1.753 0 3.085.372 3.993 1.115.908.743 1.361 1.806 1.361 3.188 0 1.383-.453 2.45-1.361 3.204-.908.753-2.24 1.13-3.993 1.13h-1.27l2.292 3.28.248.356 4.181 5.99h4.33l-4.983-7.119c1.486-.578 2.625-1.456 3.42-2.63.794-1.177 1.192-2.58 1.192-4.211 0-1.589-.372-2.961-1.115-4.116-.743-1.156-1.81-2.043-3.204-2.663C11.792.31 10.157 0 8.28 0H0v21.667h4.024V3.404z" transform="translate(-232 -33) translate(232 33)"/>
            </g>
        </g>
    </g>
</svg>
